<svg id="Livello_1" data-name="Livello 1" xmlns="http://www.w3.org/2000/svg" viewBox="0 0 332.73 205.31"><defs><style>.cls-1,.cls-2,.cls-5{fill:none;}.cls-1{stroke:#4c565c;}.cls-1,.cls-2{stroke-miterlimit:10;stroke-width:3.71px;}.cls-2{stroke:#b20e10;}.cls-3{fill:#4c565c;}.cls-4{fill:#b20e10;}</style></defs><title>Dipartimento Matematica Orizzontale</title><rect class="cls-1" x="101.25" y="1.86" width="74.23" height="74.23"/><path class="cls-1" d="M334.33,208.26a37.12,37.12,0,1,1,0,74.24" transform="translate(-233.08 -206.41)"/><rect class="cls-2" x="430.83" y="208.26" width="74.23" height="74.23" transform="translate(480.25 -428.98) rotate(90)"/><path class="cls-2" d="M505.06,208.26a37.12,37.12,0,1,1-74.23,0" transform="translate(-233.08 -206.41)"/><path class="cls-3" d="M276.08,319H285c8.43,0,14.25,5.78,14.25,13.32v.08c0,7.54-5.82,13.4-14.25,13.4h-8.92Zm2,1.84V344H285c7.47,0,12.18-5.09,12.18-11.49v-.07c0-6.36-4.71-11.56-12.18-11.56Z" transform="translate(-233.08 -206.41)"/><path class="cls-3" d="M305.9,319h2v26.8h-2Z" transform="translate(-233.08 -206.41)"/><path class="cls-3" d="M315.92,319h9.72c5.9,0,9.95,3,9.95,8.19v.08c0,5.63-4.86,8.54-10.45,8.54h-7.23v10h-2Zm9.34,15c5,0,8.34-2.61,8.34-6.59v-.07c0-4.25-3.29-6.47-8.11-6.47h-7.58V334Z" transform="translate(-233.08 -206.41)"/><path class="cls-3" d="M348.55,318.85h1.92l12.48,27h-2.18l-3.41-7.51H341.55l-3.41,7.51h-2.07Zm8,17.69-7-15.51-7.08,15.51Z" transform="translate(-233.08 -206.41)"/><path class="cls-3" d="M368.16,319h11.26a10.55,10.55,0,0,1,7.54,2.64,7.07,7.07,0,0,1,2,5v.07c0,4.48-3.33,7-7.85,7.66L390,345.84h-2.52l-8.54-11.1h-8.77v11.1h-2Zm11,13.9c4.48,0,7.81-2.26,7.81-6.13v-.08c0-3.59-2.83-5.85-7.7-5.85h-9.15v12.06Z" transform="translate(-233.08 -206.41)"/><path class="cls-3" d="M402,320.88H392.7V319h20.67v1.84H404v25h-2Z" transform="translate(-233.08 -206.41)"/><path class="cls-3" d="M418.87,319h2v26.8h-2Z" transform="translate(-233.08 -206.41)"/><path class="cls-3" d="M428.89,319h1.87l10.76,15.85L452.28,319h1.87v26.8h-2V322.56L441.56,338h-.15L430.8,322.56v23.28h-1.91Z" transform="translate(-233.08 -206.41)"/><path class="cls-3" d="M462.15,319h19.06v1.84H464.14V331.4h15.35v1.84H464.14V344h17.27v1.84H462.15Z" transform="translate(-233.08 -206.41)"/><path class="cls-3" d="M487,319h1.87l18.49,23.31V319h1.92v26.8h-1.5L488.86,322v23.81H487Z" transform="translate(-233.08 -206.41)"/><path class="cls-3" d="M523.94,320.88H514.6V319h20.68v1.84h-9.35v25h-2Z" transform="translate(-233.08 -206.41)"/><path class="cls-3" d="M537.54,332.51v-.07c0-7.31,5.4-13.86,13.52-13.86s13.44,6.47,13.44,13.78v.08c0,7.31-5.4,13.86-13.52,13.86S537.54,339.83,537.54,332.51Zm24.89,0v-.07c0-6.62-4.82-12.06-11.45-12.06s-11.37,5.36-11.37,12v.08c0,6.62,4.83,12.06,11.45,12.06S562.43,339.14,562.43,332.51Z" transform="translate(-233.08 -206.41)"/><path class="cls-4" d="M276.13,356.86h5.55l9,14,9-14h5.55v29.65h-5.21V365.25l-9.36,14h-.17l-9.28-13.89v21.18h-5.12Z" transform="translate(-233.08 -206.41)"/><path class="cls-4" d="M323.45,356.65h4.82l13.05,29.86h-5.51l-3-7.16h-14l-3.05,7.16H310.4Zm7.45,18.08-5.13-11.86-5.08,11.86Z" transform="translate(-233.08 -206.41)"/><path class="cls-4" d="M349.89,361.69h-9.41v-4.83h24.06v4.83h-9.4v24.82h-5.25Z" transform="translate(-233.08 -206.41)"/><path class="cls-4" d="M369.85,356.86h22v4.66H375.06v7.71h14.86v4.66H375.06v8h17v4.66H369.85Z" transform="translate(-233.08 -206.41)"/><path class="cls-4" d="M398.74,356.86h5.54l9,14,9-14h5.55v29.65h-5.21V365.25l-9.36,14h-.17l-9.28-13.89v21.18h-5.12Z" transform="translate(-233.08 -206.41)"/><path class="cls-4" d="M446.05,356.65h4.83l13.05,29.86h-5.51l-3-7.16h-14l-3.05,7.16H433Zm7.46,18.08-5.13-11.86-5.08,11.86Z" transform="translate(-233.08 -206.41)"/><path class="cls-4" d="M472.49,361.69h-9.4v-4.83h24.06v4.83h-9.4v24.82h-5.26Z" transform="translate(-233.08 -206.41)"/><path class="cls-4" d="M492.59,356.86h5.21v29.65h-5.21Z" transform="translate(-233.08 -206.41)"/><path class="cls-4" d="M504.61,371.77v-.09a15,15,0,0,1,15.29-15.33A15.44,15.44,0,0,1,531.5,361l-3.34,3.85c-2.37-2.2-4.92-3.68-8.3-3.68-5.64,0-9.79,4.66-9.79,10.46v.08c0,5.81,4.11,10.51,9.79,10.51,3.64,0,6-1.44,8.51-3.81l3.35,3.38a15.31,15.31,0,0,1-12,5.26A14.91,14.91,0,0,1,504.61,371.77Z" transform="translate(-233.08 -206.41)"/><path class="cls-4" d="M547.93,356.65h4.83l13,29.86H560.3l-3-7.16h-14l-3,7.16h-5.34Zm7.46,18.08-5.13-11.86-5.08,11.86Z" transform="translate(-233.08 -206.41)"/><path class="cls-3" d="M282.5,409.25a3.46,3.46,0,0,1-.84,1.23,4,4,0,0,1-1.3.81,4.4,4.4,0,0,1-1.65.3h-2.56v-7.7h2.56a4.4,4.4,0,0,1,1.65.29,3.67,3.67,0,0,1,1.3.81,3.38,3.38,0,0,1,.84,1.21,3.8,3.8,0,0,1,.3,1.51v0A3.77,3.77,0,0,1,282.5,409.25Zm-.29-1.51a3.26,3.26,0,0,0-.25-1.29,3.19,3.19,0,0,0-1.8-1.78,3.75,3.75,0,0,0-1.45-.27h-2v6.67h2a3.94,3.94,0,0,0,1.45-.26,3.21,3.21,0,0,0,1.1-.71,3.13,3.13,0,0,0,.7-1,3.31,3.31,0,0,0,.25-1.3Z" transform="translate(-233.08 -206.41)"/><path class="cls-3" d="M284.54,411.59v-7.7h.57v7.7Z" transform="translate(-233.08 -206.41)"/><path class="cls-3" d="M292.6,407.33a2.31,2.31,0,0,1-.65.77,2.85,2.85,0,0,1-1,.46,4,4,0,0,1-1.15.16h-2.08v2.87h-.57v-7.7H290a3.9,3.9,0,0,1,1.17.16,2.74,2.74,0,0,1,.9.46,2.13,2.13,0,0,1,.59.74,2.4,2.4,0,0,1,.2,1v0A2.28,2.28,0,0,1,292.6,407.33Zm-.33-1.06a1.73,1.73,0,0,0-.17-.81,1.58,1.58,0,0,0-.48-.58,2.06,2.06,0,0,0-.73-.35,3.16,3.16,0,0,0-.95-.13h-2.18v3.8h2.11a3.69,3.69,0,0,0,1-.13,2.18,2.18,0,0,0,.76-.39,1.69,1.69,0,0,0,.49-.6,1.82,1.82,0,0,0,.17-.78Z" transform="translate(-233.08 -206.41)"/><path class="cls-3" d="M299.92,411.59l-1-2.16H294.4l-1,2.16h-.6l3.59-7.76H297l3.58,7.76Zm-3.25-7.13-2,4.45h4.06Z" transform="translate(-233.08 -206.41)"/><path class="cls-3" d="M307.43,411.59,305,408.4h-2.52v3.19h-.57v-7.7h3.23a3.59,3.59,0,0,1,1.13.16,2.4,2.4,0,0,1,.87.45,2.05,2.05,0,0,1,.55.69,2,2,0,0,1,.2.89v0a2.13,2.13,0,0,1-.17.86,2,2,0,0,1-.47.66,2.48,2.48,0,0,1-.72.44,4,4,0,0,1-.89.24l2.54,3.29Zm-.13-5.5a1.46,1.46,0,0,0-.58-1.23,2.53,2.53,0,0,0-1.63-.46h-2.63v3.48h2.59a3.16,3.16,0,0,0,.9-.12,2.14,2.14,0,0,0,.71-.35,1.56,1.56,0,0,0,.64-1.3Z" transform="translate(-233.08 -206.41)"/><path class="cls-3" d="M312.15,404.4v7.19h-.57V404.4h-2.69v-.51h5.94v.51Z" transform="translate(-233.08 -206.41)"/><path class="cls-3" d="M316.36,411.59v-7.7h.57v7.7Z" transform="translate(-233.08 -206.41)"/><path class="cls-3" d="M325.7,411.59V404.9l-3.05,4.43h0l-3.05-4.43v6.69H319v-7.7h.54l3.09,4.55,3.09-4.55h.54v7.7Z" transform="translate(-233.08 -206.41)"/><path class="cls-3" d="M328.27,411.59v-7.7h5.48v.51h-4.9v3.05h4.41V408h-4.41v3.1h5v.52Z" transform="translate(-233.08 -206.41)"/><path class="cls-3" d="M341.33,411.59l-5.42-6.84v6.84h-.55v-7.7h.54l5.31,6.7v-6.7h.55v7.7Z" transform="translate(-233.08 -206.41)"/><path class="cls-3" d="M346.47,404.4v7.19h-.57V404.4h-2.69v-.51h5.94v.51Z" transform="translate(-233.08 -206.41)"/><path class="cls-3" d="M357.12,409.25a4,4,0,0,1-.78,1.27,3.62,3.62,0,0,1-1.23.87,3.77,3.77,0,0,1-1.59.33,3.71,3.71,0,0,1-1.59-.33,3.8,3.8,0,0,1-1.22-.86,4.3,4.3,0,0,1-.78-1.26,4.25,4.25,0,0,1-.27-1.51v0a4.14,4.14,0,0,1,.28-1.52,4.05,4.05,0,0,1,.79-1.27,3.92,3.92,0,0,1,4.4-.87,3.82,3.82,0,0,1,1.22.87,4.05,4.05,0,0,1,.78,1.26,4.2,4.2,0,0,1,.27,1.5,0,0,0,0,1,0,0A4.09,4.09,0,0,1,357.12,409.25Zm-.31-1.51a3.56,3.56,0,0,0-.25-1.35,3.34,3.34,0,0,0-.68-1.1,3.23,3.23,0,0,0-1-.74,3,3,0,0,0-1.32-.28,3.1,3.1,0,0,0-1.31.27,3.23,3.23,0,0,0-1,.74,3.38,3.38,0,0,0-.67,1.09,3.55,3.55,0,0,0-.25,1.34v0a3.75,3.75,0,0,0,.25,1.34,3.4,3.4,0,0,0,.68,1.1,3.26,3.26,0,0,0,1,.75,3.21,3.21,0,0,0,1.32.27,3.17,3.17,0,0,0,2.35-1,3.45,3.45,0,0,0,.68-1.1,3.71,3.71,0,0,0,.24-1.34Z" transform="translate(-233.08 -206.41)"/><path class="cls-3" d="M368.44,409.25a3.62,3.62,0,0,1-.85,1.23,4,4,0,0,1-1.29.81,4.49,4.49,0,0,1-1.66.3h-2.56v-7.7h2.56a4.49,4.49,0,0,1,1.66.29,3.72,3.72,0,0,1,1.29.81,3.54,3.54,0,0,1,.85,1.21,4,4,0,0,1,.29,1.51v0A3.94,3.94,0,0,1,368.44,409.25Zm-.3-1.51a3.26,3.26,0,0,0-.25-1.29,3.06,3.06,0,0,0-.7-1.06,3.14,3.14,0,0,0-1.1-.72,3.71,3.71,0,0,0-1.45-.27h-2v6.67h2a3.9,3.9,0,0,0,1.45-.26,3.12,3.12,0,0,0,1.1-.71,3,3,0,0,0,.7-1,3.31,3.31,0,0,0,.25-1.3Z" transform="translate(-233.08 -206.41)"/><path class="cls-3" d="M370.47,411.59v-7.7H371v7.7Z" transform="translate(-233.08 -206.41)"/><path class="cls-3" d="M382.82,411.59V404.9l-3,4.43h0l-3-4.43v6.69h-.55v-7.7h.53l3.1,4.55,3.09-4.55h.54v7.7Z" transform="translate(-233.08 -206.41)"/><path class="cls-3" d="M391.83,411.59l-1-2.16h-4.54l-1,2.16h-.59l3.58-7.76h.55l3.59,7.76Zm-3.24-7.13-2,4.45h4.06Z" transform="translate(-233.08 -206.41)"/><path class="cls-3" d="M395.52,404.4v7.19H395V404.4h-2.69v-.51h5.94v.51Z" transform="translate(-233.08 -206.41)"/><path class="cls-3" d="M399.65,411.59v-7.7h5.48v.51h-4.9v3.05h4.41V408h-4.41v3.1h5v.52Z" transform="translate(-233.08 -206.41)"/><path class="cls-3" d="M413.43,411.59V404.9l-3.05,4.43h-.05l-3-4.43v6.69h-.55v-7.7h.54l3.09,4.55,3.09-4.55H414v7.7Z" transform="translate(-233.08 -206.41)"/><path class="cls-3" d="M422.43,411.59l-1-2.16h-4.55l-1,2.16h-.59l3.59-7.76h.55l3.58,7.76Zm-3.24-7.13-2,4.45h4.06Z" transform="translate(-233.08 -206.41)"/><path class="cls-3" d="M426.12,404.4v7.19h-.57V404.4h-2.69v-.51h5.94v.51Z" transform="translate(-233.08 -206.41)"/><path class="cls-3" d="M430.33,411.59v-7.7h.57v7.7Z" transform="translate(-233.08 -206.41)"/><path class="cls-3" d="M438.89,410.92a3,3,0,0,1-.69.42,3.77,3.77,0,0,1-.8.28,3.84,3.84,0,0,1-.93.1,3.7,3.7,0,0,1-1.53-.31,3.85,3.85,0,0,1-1.22-.84,3.9,3.9,0,0,1-.79-1.26,4.19,4.19,0,0,1-.29-1.55v0a4.14,4.14,0,0,1,.29-1.54,3.89,3.89,0,0,1,.81-1.27,3.61,3.61,0,0,1,1.21-.86,3.72,3.72,0,0,1,1.54-.32,4.48,4.48,0,0,1,.94.09,3.87,3.87,0,0,1,.77.26,4,4,0,0,1,.67.39,4.76,4.76,0,0,1,.61.5l-.4.42a5.62,5.62,0,0,0-.53-.46,3.53,3.53,0,0,0-.59-.35,3.64,3.64,0,0,0-.68-.24,3.38,3.38,0,0,0-.8-.09,3.17,3.17,0,0,0-2.32,1,3.66,3.66,0,0,0-.68,1.09,3.76,3.76,0,0,0-.24,1.35v0a3.56,3.56,0,0,0,.94,2.46,3.29,3.29,0,0,0,3.76.69,4.54,4.54,0,0,0,1.2-.89l.39.38A6.32,6.32,0,0,1,438.89,410.92Z" transform="translate(-233.08 -206.41)"/><path class="cls-3" d="M447.25,411.59l-1-2.16h-4.54l-1,2.16h-.6l3.59-7.76h.55l3.59,7.76ZM444,404.46l-2,4.45H446Z" transform="translate(-233.08 -206.41)"/><path class="cls-3" d="M452.49,404.49a.78.78,0,0,0-.13.52h.3v.93h-.73v-.81a1.37,1.37,0,0,1,.21-.81,1.51,1.51,0,0,1,.71-.49l.13.28A1.36,1.36,0,0,0,452.49,404.49Zm2,0a.84.84,0,0,0-.12.52h.3v.93h-.72v-.81a1.37,1.37,0,0,1,.2-.81,1.51,1.51,0,0,1,.71-.49l.13.28A1.51,1.51,0,0,0,454.46,404.49Z" transform="translate(-233.08 -206.41)"/><path class="cls-3" d="M459.16,404.4v7.19h-.57V404.4h-2.68v-.51h5.94v.51Z" transform="translate(-233.08 -206.41)"/><path class="cls-3" d="M469.26,409.78a2.91,2.91,0,0,1-.65,1.06,2.75,2.75,0,0,1-1,.65,3.79,3.79,0,0,1-1.29.22,3.49,3.49,0,0,1-1.27-.22,2.74,2.74,0,0,1-1-.63,2.92,2.92,0,0,1-.65-1,3.94,3.94,0,0,1-.23-1.43v-4.5h.57v4.44a3,3,0,0,0,.69,2.12,2.48,2.48,0,0,0,1.92.74,2.93,2.93,0,0,0,1.05-.18,2,2,0,0,0,.81-.52,2.48,2.48,0,0,0,.52-.88,3.82,3.82,0,0,0,.18-1.22v-4.5h.57v4.43A4.34,4.34,0,0,1,469.26,409.78Z" transform="translate(-233.08 -206.41)"/><path class="cls-3" d="M471.37,411.59v-7.7h.57v7.18h4.52v.52Z" transform="translate(-233.08 -206.41)"/><path class="cls-3" d="M477.89,411.59v-7.7h.58v7.18H483v.52Z" transform="translate(-233.08 -206.41)"/><path class="cls-3" d="M484.49,411.59v-7.7h.58v7.7Z" transform="translate(-233.08 -206.41)"/><path class="cls-3" d="M494.27,409.25a4.05,4.05,0,0,1-.79,1.27,3.62,3.62,0,0,1-1.23.87,3.86,3.86,0,0,1-4.39-.86,3.92,3.92,0,0,1-.78-1.26,4,4,0,0,1-.28-1.51v0a4.36,4.36,0,0,1,.28-1.52,4.05,4.05,0,0,1,.79-1.27,3.87,3.87,0,0,1,1.22-.87,3.78,3.78,0,0,1,1.6-.33,3.78,3.78,0,0,1,3.58,2.46,4,4,0,0,1,.28,1.5v0A4.3,4.3,0,0,1,494.27,409.25Zm-.32-1.51a3.76,3.76,0,0,0-.24-1.35,3.54,3.54,0,0,0-.69-1.1,3.13,3.13,0,0,0-1-.74,3,3,0,0,0-1.32-.28,3.13,3.13,0,0,0-2.34,1,3.4,3.4,0,0,0-.68,1.09,3.75,3.75,0,0,0-.24,1.34v0a3.75,3.75,0,0,0,.24,1.34,3.43,3.43,0,0,0,.69,1.1,3.26,3.26,0,0,0,3.67.75,3.06,3.06,0,0,0,1-.73,3.45,3.45,0,0,0,.68-1.1,3.71,3.71,0,0,0,.24-1.34Z" transform="translate(-233.08 -206.41)"/><path class="cls-3" d="M499.22,411.59v-7.7h.57v7.18h4.53v.52Z" transform="translate(-233.08 -206.41)"/><path class="cls-3" d="M505.74,411.59v-7.7h5.48v.51h-4.9v3.05h4.41V408h-4.41v3.1h5v.52Z" transform="translate(-233.08 -206.41)"/><path class="cls-3" d="M516.06,411.64h-.5l-3.39-7.75h.64l3,7.08,3-7.08h.6Z" transform="translate(-233.08 -206.41)"/><path class="cls-3" d="M520.87,411.59v-7.7h.57v7.7Z" transform="translate(-233.08 -206.41)"/><path class="cls-3" d="M523.15,408.63V408h2.94v.62Z" transform="translate(-233.08 -206.41)"/><path class="cls-3" d="M533.63,410.92a3,3,0,0,1-.69.42,3.77,3.77,0,0,1-.8.28,3.84,3.84,0,0,1-.93.1,3.7,3.7,0,0,1-1.53-.31,3.85,3.85,0,0,1-1.22-.84,3.9,3.9,0,0,1-.79-1.26,4.19,4.19,0,0,1-.29-1.55v0a4.14,4.14,0,0,1,.29-1.54,3.89,3.89,0,0,1,.81-1.27,3.61,3.61,0,0,1,1.21-.86,3.72,3.72,0,0,1,1.54-.32,4.48,4.48,0,0,1,.94.09,3.87,3.87,0,0,1,.77.26,4,4,0,0,1,.67.39,4.76,4.76,0,0,1,.61.5l-.4.42a5.62,5.62,0,0,0-.53-.46,3.53,3.53,0,0,0-.59-.35,3.64,3.64,0,0,0-.68-.24,3.38,3.38,0,0,0-.8-.09,3.17,3.17,0,0,0-2.32,1,3.66,3.66,0,0,0-.68,1.09,3.76,3.76,0,0,0-.24,1.35v0a3.56,3.56,0,0,0,.94,2.46,3.23,3.23,0,0,0,1,.73,3.38,3.38,0,0,0,2.74,0,4.54,4.54,0,0,0,1.2-.89l.39.38A6.32,6.32,0,0,1,533.63,410.92Z" transform="translate(-233.08 -206.41)"/><path class="cls-3" d="M535.63,411.59v-7.7h.57v7.7Z" transform="translate(-233.08 -206.41)"/><path class="cls-3" d="M541.52,411.64H541l-3.39-7.75h.64l3,7.08,3-7.08h.6Z" transform="translate(-233.08 -206.41)"/><path class="cls-3" d="M546.32,411.59v-7.7h.58v7.7Z" transform="translate(-233.08 -206.41)"/><path class="cls-3" d="M551.68,404.4v7.19h-.57V404.4h-2.69v-.51h5.94v.51Z" transform="translate(-233.08 -206.41)"/><path class="cls-3" d="M561.26,411.59l-1-2.16h-4.54l-1,2.16h-.59l3.58-7.76h.55l3.59,7.76ZM558,404.46l-2,4.45H560Z" transform="translate(-233.08 -206.41)"/><path class="cls-3" d="M562.34,405.34a.82.82,0,0,0,.12-.52h-.3v-.93h.73v.81a1.35,1.35,0,0,1-.21.81,1.51,1.51,0,0,1-.71.49l-.13-.28A1.41,1.41,0,0,0,562.34,405.34Zm2,0a.82.82,0,0,0,.12-.52h-.3v-.93h.73v.81a1.35,1.35,0,0,1-.21.81,1.48,1.48,0,0,1-.7.49l-.14-.28A1.41,1.41,0,0,0,564.32,405.34Z" transform="translate(-233.08 -206.41)"/><rect class="cls-5" y="180.2" width="24.13" height="17.41"/></svg>